<?xml version="1.0" standalone="no"?><!DOCTYPE svg PUBLIC "-//W3C//DTD SVG 1.1//EN" "http://www.w3.org/Graphics/SVG/1.1/DTD/svg11.dtd"><svg t="1647501916645" class="icon" viewBox="0 0 1536 1024" version="1.1" xmlns="http://www.w3.org/2000/svg" p-id="3610" xmlns:xlink="http://www.w3.org/1999/xlink" width="48" height="32"><defs><style type="text/css"></style></defs><path d="M1522.41981 608.121905l-192.341334 329.667047a170.105905 170.105905 0 0 1-146.566095 84.309334H121.283048c-34.852571-0.146286-63.451429-28.867048-63.451429-63.719619 0-11.093333 2.889143-21.991619 8.387048-31.609905L258.56 596.845714a170.142476 170.142476 0 0 1 146.566095-84.321524h1062.351238c34.913524 0.073143 63.597714 28.818286 63.597715 63.73181 0 11.190857-2.937905 22.174476-8.533334 31.865905h-0.121904z m-1117.098667-180.540953h870.972952V300.117333c0-69.912381-57.539048-127.451429-127.451428-127.451428H723.968L554.057143 2.706286H129.182476C59.270095 2.706286 1.731048 60.233143 1.731048 130.157714V868.449524l183.405714-314.428953a256.048762 256.048762 0 0 1 220.184381-126.439619z" fill="#e6e6e6" p-id="3611"></path></svg>