<?xml version="1.0" standalone="no"?><!DOCTYPE svg PUBLIC "-//W3C//DTD SVG 1.1//EN" "http://www.w3.org/Graphics/SVG/1.1/DTD/svg11.dtd"><svg t="1647542920139" class="icon" viewBox="0 0 1024 1024" version="1.1" xmlns="http://www.w3.org/2000/svg" p-id="2867" xmlns:xlink="http://www.w3.org/1999/xlink" width="200" height="200"><defs><style type="text/css"></style></defs><path d="M956.351785 841.786005c3.796466 15.182794 3.006474 29.577642-2.371 43.180452-5.379521 13.603833-13.761422 25.622564-25.151843 36.062334s-25.305339 18.667152-41.754986 24.676006c-16.449647 6.009877-34.167171 9.015328-53.146431 9.015328-119.579469 0.633427-226.499617 0.950651-320.771701 0.950651L190.485891 955.670775c-22.779819 0-42.868343-4.113691-60.263525-12.341073-17.400299-8.222265-31.318286-18.345834-41.760103-30.365588-10.43977-12.023848-17.400299-25.15082-20.875446-39.388079-3.479241-14.232143-3.007497-27.048029 1.421372-38.433334 3.796466-8.855692 7.593955-18.033725 11.390421-27.522844 3.163039-8.222265 6.960529-17.557888 11.385305-27.993564 4.429893-10.43977 9.172917-21.038152 14.237259-31.794124l36.062334-87.311555 108.192118 0-40.809451 119.577423 611.17679 0-40.809451-119.577423 103.445 0c13.285584 32.269961 25.305339 61.372789 36.06131 87.311555 4.429893 11.390421 8.854669 22.458501 13.286608 33.215496 4.429893 10.756995 8.379854 20.404726 11.861142 28.944216 3.479241 8.544607 6.326079 15.820314 8.543583 21.830191C955.242522 837.83195 956.351785 841.152579 956.351785 841.786005L956.351785 841.786005zM478.989677 666.217361c-12.019755-13.920034-25.77913-31.31931-41.284265-52.199872-15.500019-20.874423-31.474852-42.388413-47.922453-64.530712-16.45067-22.147416-32.741705-43.973514-48.879244-65.485457-16.133446-21.51092-30.524201-40.177048-43.180452-55.992245-14.549368-17.084097-20.24202-31.16172-17.077957-42.231847 3.162016-11.072173 13.913894-16.607236 32.264844-16.607236 10.122545 0.633427 23.726378 0.476861 40.809451-0.474814 17.083074-0.950651 31.314193-1.425466 42.703591-1.425466 12.653181 0 20.563338-3.796466 23.727401-11.386328 3.163039-7.593955 4.742001-17.7165 4.742001-30.369681 0-13.921058-0.157589-29.261441-0.474814-46.027289-0.313132-16.765849-0.469698-34.006512-0.469698-51.724035 0-17.7165-0.159636-35.112706-0.475837-52.195779-0.318248-17.08205-0.475837-32.897248-0.475837-47.451732 0-6.327102 0.475837-12.969383 1.421372-19.929912 0.950651-6.960529 3.163039-13.286608 6.643304-18.97926 3.479241-5.697769 8.543583-10.43977 15.186887-14.237259 6.642281-3.795443 15.657608-5.692652 27.048029-5.692652 13.285584 0 25.463951-0.157589 36.537148-0.475837 11.069103-0.316202 23.886013-0.474814 38.434358-0.474814 20.880563 0 34.958186 4.904707 42.233893 14.71105 7.272637 9.807367 11.228739 25.465998 11.862165 46.973848l0 37.011962c0 14.554484 0.157589 30.052456 0.475837 46.502104 0.316202 16.448624 0.474814 32.903388 0.474814 49.353035l0 44.601824c0 18.35095 1.89721 33.05893 5.692652 44.131103 3.795443 11.073196 12.334933 16.292058 25.621541 15.658631 9.490142 0 21.038152 0.316202 34.640961 0.949628 13.604856 0.63445 25.465998 0.950651 35.58752 0.950651 17.08205 0 27.997658 4.584412 32.741705 13.761422 4.747117 9.172917 1.424442 21.035082-9.965979 35.586496-12.018731 15.183817-25.938766 33.532721-41.754986 55.041594-15.816221 21.512966-32.106232 43.813878-48.873104 66.907852-16.767895 23.091928-33.216519 45.556569-49.354058 67.381643-16.131399 21.830191-30.522154 40.651862-43.178405 56.467059-11.386328 14.554484-22.300912 21.988804-32.741705 22.300912C501.290589 686.934195 490.381122 680.133302 478.989677 666.217361L478.989677 666.217361zM478.989677 666.217361" p-id="2868" fill="#e6e6e6"></path></svg>